0
SECTION
2
HEADER
9
$ACADVER
1
AC1009
0
ENDSEC
0
SECTION
2
TABLES
0
TABLE
2
LAYER
70
5
0
LAYER
2
PCB_OUTLINE
70
0
62
7
6
CONTINUOUS
0
LAYER
2
MOUNT_HOLES
70
0
62
2
6
CONTINUOUS
0
LAYER
2
MODULE_ENVELOPES
70
0
62
3
6
CONTINUOUS
0
LAYER
2
CUTOUTS
70
0
62
1
6
CONTINUOUS
0
LAYER
2
CONTROLS
70
0
62
6
6
CONTINUOUS
0
ENDTAB
0
ENDSEC
0
SECTION
2
ENTITIES
0
LINE
8
PCB_OUTLINE
10
7
20
7
11
197
21
7
0
LINE
8
PCB_OUTLINE
10
197
20
7
11
197
21
117
0
LINE
8
PCB_OUTLINE
10
197
20
117
11
7
21
117
0
LINE
8
PCB_OUTLINE
10
7
20
117
11
7
21
7
0
CIRCLE
8
MOUNT_HOLES
10
12
20
12
40
1.4
0
CIRCLE
8
MOUNT_HOLES
10
62
20
12
40
1.4
0
CIRCLE
8
MOUNT_HOLES
10
192
20
12
40
1.4
0
CIRCLE
8
MOUNT_HOLES
10
12
20
112
40
1.4
0
CIRCLE
8
MOUNT_HOLES
10
106
20
112
40
1.4
0
CIRCLE
8
MOUNT_HOLES
10
192
20
112
40
1.4
0
CIRCLE
8
MOUNT_HOLES
10
12
20
45
40
1.4
0
CIRCLE
8
MOUNT_HOLES
10
106
20
45
40
1.4
0
CIRCLE
8
MOUNT_HOLES
10
160
20
39
40
1.4
0
CIRCLE
8
MOUNT_HOLES
10
193
20
39
40
1.4
0
CIRCLE
8
MOUNT_HOLES
10
160
20
105
40
1.4
0
CIRCLE
8
MOUNT_HOLES
10
193
20
105
40
1.4
0
CIRCLE
8
MOUNT_HOLES
10
30.5
20
73
40
1.4
0
CIRCLE
8
MOUNT_HOLES
10
88.5
20
73
40
1.4
0
CIRCLE
8
MOUNT_HOLES
10
30.5
20
96
40
1.4
0
CIRCLE
8
MOUNT_HOLES
10
88.5
20
96
40
1.4
0
CIRCLE
8
MOUNT_HOLES
10
120.6983
20
42.5788
40
1.4
0
CIRCLE
8
MOUNT_HOLES
10
143.6982
20
42.5788
40
1.4
0
CIRCLE
8
MOUNT_HOLES
10
120.6983
20
100.5789
40
1.4
0
CIRCLE
8
MOUNT_HOLES
10
143.6982
20
100.5789
40
1.4
0
LINE
8
MODULE_ENVELOPES
10
15
20
50
11
103
21
50
0
LINE
8
MODULE_ENVELOPES
10
103
20
50
11
103
21
104
0
LINE
8
MODULE_ENVELOPES
10
103
20
104
11
15
21
104
0
LINE
8
MODULE_ENVELOPES
10
15
20
104
11
15
21
50
0
LINE
8
MODULE_ENVELOPES
10
117
20
39
11
147
21
39
0
LINE
8
MODULE_ENVELOPES
10
147
20
39
11
147
21
104
0
LINE
8
MODULE_ENVELOPES
10
147
20
104
11
117
21
104
0
LINE
8
MODULE_ENVELOPES
10
117
20
104
11
117
21
39
0
LINE
8
MODULE_ENVELOPES
10
160
20
39
11
185.5
21
39
0
LINE
8
MODULE_ENVELOPES
10
185.5
20
39
11
185.5
21
99
0
LINE
8
MODULE_ENVELOPES
10
185.5
20
99
11
160
21
99
0
LINE
8
MODULE_ENVELOPES
10
160
20
99
11
160
21
39
0
LINE
8
MODULE_ENVELOPES
10
27
20
69.5
11
92
21
69.5
0
LINE
8
MODULE_ENVELOPES
10
92
20
69.5
11
92
21
99.5
0
LINE
8
MODULE_ENVELOPES
10
92
20
99.5
11
27
21
99.5
0
LINE
8
MODULE_ENVELOPES
10
27
20
99.5
11
27
21
69.5
0
LINE
8
CUTOUTS
10
33.6
20
92
11
85.4
21
92
0
LINE
8
CUTOUTS
10
85.4
20
92
11
85.4
21
100
0
LINE
8
CUTOUTS
10
85.4
20
100
11
33.6
21
100
0
LINE
8
CUTOUTS
10
33.6
20
100
11
33.6
21
92
0
CIRCLE
8
CONTROLS
10
197
20
33
40
3.6
0
LINE
8
CONTROLS
10
190
20
22
11
204
21
22
0
LINE
8
CONTROLS
10
204
20
22
11
204
21
28
0
LINE
8
CONTROLS
10
204
20
28
11
190
21
28
0
LINE
8
CONTROLS
10
190
20
28
11
190
21
22
0
ENDSEC
0
EOF

